<svg width="50" height="50" fill="none" xmlns="http://www.w3.org/2000/svg"><path d="M40.91 30.23a2.92 2.92 0 0 0 2.92-2.92 2.83 2.83 0 0 0-.13-.83l-5.57 1.67a2.9 2.9 0 0 0 2.78 2.08Z" fill="#D15187"/><path d="M40.91 24.39A2.92 2.92 0 0 0 38 27.31c.007.285.054.568.14.84l5.57-1.67a2.92 2.92 0 0 0-2.8-2.09Z" fill="#A445BB"/><path d="M6.17 27.31a2.91 2.91 0 0 0 5.7.83L6.3 26.48a2.83 2.83 0 0 0-.13.83Z" fill="#D15187"/><path d="M9.09 24.39a2.92 2.92 0 0 0-2.79 2.09l5.57 1.66c.088-.268.135-.548.14-.83a2.92 2.92 0 0 0-2.92-2.92ZM25 35.27a8.84 8.84 0 1 0 0-17.68 8.84 8.84 0 0 0 0 17.68Z" fill="#A445BB"/><path d="M48.88 22.89H33.1a8.84 8.84 0 0 0-7.22-5.26v-6a.86.86 0 1 0-1.72 0v6a8.84 8.84 0 0 0-7.22 5.26H1.12a.87.87 0 0 0-.87.87V24a.88.88 0 0 0 .62.84l5.43 1.64a2.91 2.91 0 0 1 5.71.83 2.829 2.829 0 0 1-.14.83l4.89 1.47v-.21c1.28 2.81 4.48 4.1 8.23 4.1s7-1.3 8.24-4.12v.23l4.88-1.46a3 3 0 0 1-.14-.84 2.91 2.91 0 0 1 5.71-.83l5.43-1.63a.88.88 0 0 0 .62-.84v-.25a.87.87 0 0 0-.85-.87Z" fill="#6F2CFF"/><path d="M30.3 22.01v.88L25 24.66l-5.3-1.77v-.88h10.6Z" fill="#fff"/></svg>