<svg width="50" height="50" fill="none" xmlns="http://www.w3.org/2000/svg"><path d="M37.12 10.89H12.88a1.99 1.99 0 0 0-1.99 1.99v24.24a1.99 1.99 0 0 0 1.99 1.99h24.24c1.1 0 1.99-.891 1.99-1.99V12.88c0-1.1-.89-1.99-1.99-1.99Z" fill="#6F2CFF"/><path d="M39.11 25h4.01M39.11 31.56h4.01M39.11 18.44h4.01M6.88 25h4.01M6.88 31.56h4.01M6.88 18.44h4.01M25 10.89V6.88M31.16 10.89V6.88M18.84 10.89V6.88M25 43.12v-4.01M31.16 43.12v-4.01M18.84 43.12v-4.01" stroke="#6F2CFF" stroke-width="2.78" stroke-miterlimit="10" stroke-linecap="round"/><path d="M26.88 23.11h-3.77v3.77h3.77v-3.77ZM33.04 23.11h-3.77v3.77h3.77v-3.77ZM20.72 23.11h-3.77v3.77h3.77v-3.77ZM26.88 16.56h-3.77v3.77h3.77v-3.77ZM33.04 16.56h-3.77v3.77h3.77v-3.77ZM20.72 16.56h-3.77v3.77h3.77v-3.77ZM26.88 29.67h-3.77v3.77h3.77v-3.77ZM33.04 29.67h-3.77v3.77h3.77v-3.77ZM20.72 29.67h-3.77v3.77h3.77v-3.77Z" fill="#D15187"/></svg>