<svg width="50" height="50" fill="none" xmlns="http://www.w3.org/2000/svg"><path d="M25 16a5.97 5.97 0 1 0 0-11.94A5.97 5.97 0 0 0 25 16Z" fill="#A445BB"/><path d="M12.04 23.49a5.97 5.97 0 1 0 0-11.94 5.97 5.97 0 0 0 0 11.94Z" fill="#6F2CFF"/><path d="M12.04 38.45a5.97 5.97 0 1 0 0-11.94 5.97 5.97 0 0 0 0 11.94Z" fill="#A445BB"/><path d="M25 45.94A5.97 5.97 0 1 0 25 34a5.97 5.97 0 0 0 0 11.94Z" fill="#6F2CFF"/><path d="M37.96 38.45a5.97 5.97 0 1 0 0-11.94 5.97 5.97 0 0 0 0 11.94Z" fill="#A445BB"/><path d="M37.96 23.49a5.97 5.97 0 1 0 0-11.94 5.97 5.97 0 0 0 0 11.94Z" fill="#6F2CFF"/><path d="M25 28.91a3.91 3.91 0 1 0 0-7.82 3.91 3.91 0 0 0 0 7.82Z" fill="#D15187"/></svg>