<svg width="50" height="50" fill="none" xmlns="http://www.w3.org/2000/svg"><path d="M14.06 22.67a9.401 9.401 0 0 0 1.11 4.44 11.61 11.61 0 0 0 11.08-11.59c-.003-.67-.064-1.34-.18-2a9.46 9.46 0 0 0-12 9.14l-.01.01Z" fill="#A445BB"/><path d="M23.55 9h.67a11.6 11.6 0 1 0-13.9 17.32 13.93 13.93 0 0 1-.49-3.62A13.74 13.74 0 0 1 23.55 9Z" fill="#D15187"/><path d="M24.22 9h-.67A13.74 13.74 0 0 0 9.83 22.67a13.93 13.93 0 0 0 .49 3.62 13.69 13.69 0 0 0 21.3 7.44l12 12a1.24 1.24 0 0 0 1.75 0l1.24-1.24a1.24 1.24 0 0 0 0-1.75l-12-12A13.69 13.69 0 0 0 24.22 9Zm-.67 23.19a9.49 9.49 0 0 1-8.38-5 9.399 9.399 0 0 1-1.11-4.44 9.461 9.461 0 0 1 12-9.14 9.48 9.48 0 0 1-2.52 18.63l.01-.05Z" fill="#6F00FF"/></svg>