<svg width="17" height="17" fill="none" xmlns="http://www.w3.org/2000/svg"><path d="M11.74.05c.88.04 1.48.18 2.01.39a3.9 3.9 0 0 1 1.47.96c.47.46.75.92.96 1.47.21.53.35 1.13.39 2.02.04.88.05 1.16.05 3.42s-.01 2.54-.05 3.43a6.02 6.02 0 0 1-.39 2.02 3.98 3.98 0 0 1-.96 1.47c-.46.46-.92.75-1.47.96-.53.2-1.13.34-2.01.38-.89.05-1.17.05-3.43.05-2.26 0-2.54 0-3.43-.05a6.238 6.238 0 0 1-2.01-.38 4.139 4.139 0 0 1-2.43-2.43 6.02 6.02 0 0 1-.39-2.02C.01 10.85 0 10.57 0 8.31c0-2.26.01-2.54.05-3.42C.09 4 .23 3.4.44 2.87a4 4 0 0 1 .95-1.47c.47-.47.93-.75 1.48-.96A5.95 5.95 0 0 1 4.88.05C5.77.01 6.05 0 8.31 0c2.26 0 2.54.01 3.43.05ZM8.31 1.5c-2.22 0-2.48.01-3.36.05-.81.03-1.25.17-1.54.28a2.65 2.65 0 0 0-1.58 1.58c-.11.29-.25.73-.28 1.54-.05 1.12-.066 2.24-.05 3.36 0 2.22.01 2.48.05 3.36.03.81.17 1.25.28 1.54.15.39.33.67.62.96.29.29.57.47.96.62.29.12.73.25 1.54.29.88.04 1.14.05 3.36.05 2.22 0 2.48-.01 3.36-.05a4.45 4.45 0 0 0 1.54-.29c.39-.15.67-.33.96-.62.29-.29.47-.57.62-.96.11-.29.25-.73.28-1.54.04-.88.05-1.14.05-3.36 0-2.22-.01-2.48-.05-3.36a4.52 4.52 0 0 0-.28-1.54 2.65 2.65 0 0 0-1.58-1.58 4.52 4.52 0 0 0-1.54-.28c-1.12-.05-2.24-.066-3.36-.05Z" fill="#1C1C1C"/><path d="M8.35 11.18a2.825 2.825 0 1 1 0-5.65 2.83 2.83 0 1 1 0 5.65ZM4 8.35a4.36 4.36 0 1 0 8.71.418A4.36 4.36 0 0 0 4 8.35ZM14.37 5.19a1.2 1.2 0 0 1-1.18 1.19 1.2 1.2 0 0 1 0-2.38c.65 0 1.18.53 1.18 1.19Z" fill="#1C1C1C"/></svg>