<svg width="50" height="50" fill="none" xmlns="http://www.w3.org/2000/svg"><path d="m26.23 13.83 15.14 8L43 21a2.64 2.64 0 0 0 0-4.66L26.23 7.51a2.67 2.67 0 0 0-2.46 0L7.05 16.35a2.64 2.64 0 0 0 0 4.66l1.58.83 15.14-8a2.67 2.67 0 0 1 2.46-.01ZM23.77 36.17l-15.14-8-1.58.83a2.64 2.64 0 0 0 0 4.66l16.72 8.84a2.67 2.67 0 0 0 2.46 0L43 33.65A2.64 2.64 0 0 0 43 29l-1.58-.83-15.14 8a2.67 2.67 0 0 1-2.51 0Z" fill="#6F2CFF"/><path d="m43 22.67-1.58-.83-6 3.16-9.16 4.84a2.61 2.61 0 0 1-2.46 0L14.61 25l-6-3.16-1.58.83a2.64 2.64 0 0 0 0 4.66l1.58.83 15.14 8a2.67 2.67 0 0 0 2.46 0l15.14-8 1.65-.83a2.64 2.64 0 0 0 0-4.66Z" fill="#D15187"/><path d="M26.23 13.83a2.67 2.67 0 0 0-2.46 0l-15.14 8 6 3.16 9.16 4.84a2.61 2.61 0 0 0 2.46 0L35.39 25l6-3.16-15.16-8.01Z" fill="#A445BB"/></svg>