<svg width="50" height="50" fill="none" xmlns="http://www.w3.org/2000/svg"><path d="M25 3.58A8.92 8.92 0 0 0 16.1 13l.5 8.42h16.8l.5-8.42A8.92 8.92 0 0 0 25 3.58Z" stroke="#6F2CFF" stroke-width="2.14" stroke-miterlimit="10"/><path d="M41.64 46.42H8.36a1.682 1.682 0 0 1-1.68-1.74l.92-22.92a1.68 1.68 0 0 1 1.68-1.6h31.44a1.68 1.68 0 0 1 1.68 1.6l.92 22.92a1.68 1.68 0 0 1-1.68 1.74Z" fill="#6F2CFF"/><path d="m42.4 21.76.1 2.6h-3.32v4.2H10.82v-4.2H7.5l.1-2.6a1.68 1.68 0 0 1 1.68-1.6h31.44a1.68 1.68 0 0 1 1.68 1.6Z" fill="#D15187"/><path d="M39.19 28.56H10.82v5.25h28.37v-5.25Z" fill="#A445BB"/><path d="M27.63 33.81a2.63 2.63 0 1 1-5.26.02 2.63 2.63 0 0 1 5.26-.02Z" fill="#D15187"/></svg>