<svg width="50" height="50" fill="none" xmlns="http://www.w3.org/2000/svg"><path d="M32.85 24.63a9.51 9.51 0 0 1-15.7 0 13.57 13.57 0 0 0-5.77 11.12v11.13h27.24V35.75a13.57 13.57 0 0 0-5.77-11.12Z" fill="#6F00FF" style="mix-blend-mode:multiply"/><path d="M32.85 24.63a9.51 9.51 0 1 0-15.7 0 13.57 13.57 0 0 1 15.7 0Z" fill="#D15187" style="mix-blend-mode:multiply"/><path d="M25 28.77a9.51 9.51 0 0 0 7.85-4.14 13.57 13.57 0 0 0-15.7 0A9.51 9.51 0 0 0 25 28.77Z" fill="#A445BB"/><path d="m7.75 18.79 4.09.46-4.09.47v-.93ZM25.46 2.01 25 6.09l-.46-4.08h.92ZM42.25 19.72l-4.09-.47 4.09-.46v.93Z" fill="#6F2CFF"/></svg>