<svg width="50" height="50" fill="none" xmlns="http://www.w3.org/2000/svg"><path d="m32.4 24.14 3.76-3.77-10.08-10.08a1.519 1.519 0 0 0-2.16 0L13.84 20.37l3.76 3.77a1.21 1.21 0 0 1 0 1.72l-3.76 3.77 10.08 10.08a1.52 1.52 0 0 0 2.16 0l10.08-10.08-3.76-3.77a1.209 1.209 0 0 1 0-1.72Z" fill="#6F00FF"/><path d="M47.82 24.14 41 17.29a1.208 1.208 0 0 0-1.72 0l-3.09 3.08 3.55 3.55a1.52 1.52 0 0 1 0 2.16l-3.55 3.55 3.09 3.08a1.21 1.21 0 0 0 1.72 0l6.85-6.85a1.23 1.23 0 0 0-.03-1.72Z" fill="#D15187"/><path d="m39.71 23.92-3.55-3.55-3.76 3.77a1.21 1.21 0 0 0 0 1.72l3.76 3.77 3.55-3.55a1.52 1.52 0 0 0 0-2.16Z" fill="#A445BB"/><path d="m10.29 23.92 3.55-3.55-3.09-3.08a1.208 1.208 0 0 0-1.72 0l-6.85 6.85a1.23 1.23 0 0 0 0 1.72L9 32.71a1.21 1.21 0 0 0 1.72 0l3.09-3.08-3.55-3.55a1.52 1.52 0 0 1 .03-2.16Z" fill="#D15187"/><path d="m17.6 24.14-3.76-3.77-3.55 3.55a1.52 1.52 0 0 0 0 2.16l3.55 3.55 3.76-3.77a1.209 1.209 0 0 0 0-1.72Z" fill="#A445BB"/></svg>