<svg width="50" height="50" fill="none" xmlns="http://www.w3.org/2000/svg"><path d="M40.28 25.7c-1.81 5.19-6.89 10.93-11 15a46.136 46.136 0 0 0 4.28 4.3 1.71 1.71 0 0 0 2.28 0c2.49-2.21 8.22-7.72 8.22-11.77a9.348 9.348 0 0 0-3.78-7.53Z" fill="#D15187"/><path d="M40.28 25.7a9.35 9.35 0 0 0-14.94 7.5c0 2.31 1.87 5.1 3.94 7.48 4.11-4.05 9.19-9.79 11-14.98Z" fill="#A445BB"/><path d="M23.46 4.58A17.51 17.51 0 0 0 5.94 22.1c0 8.18 12.53 19.58 16.39 22.9a1.72 1.72 0 0 0 2.25 0c1.06-.91 2.77-2.43 4.7-4.32-2.07-2.38-3.94-5.17-3.94-7.48a9.35 9.35 0 0 1 2.4-6.2 6.21 6.21 0 0 1-4.28 1.72 6.36 6.36 0 1 1 4.68-2.15 9.32 9.32 0 0 1 12.14-.83A10.9 10.9 0 0 0 41 22.1 17.51 17.51 0 0 0 23.46 4.58Z" fill="#6F2CFF"/></svg>