<svg width="21" height="15" fill="none" xmlns="http://www.w3.org/2000/svg"><path d="M21.37 6.71v1.62c0 1.73-.22 3.46-.22 3.46s-.2 1.47-.84 2.12c-.82.85-1.73.86-2.15.91-2.99.22-7.48.22-7.48.22s-5.55-.05-7.26-.21c-.48-.09-1.54-.07-2.36-.92-.64-.65-.85-2.12-.85-2.12S0 10.06 0 8.33V6.71c0-1.73.21-3.47.21-3.47s.21-1.47.85-2.12C1.88.27 2.79.27 3.2.22 6.19 0 10.68 0 10.68 0h.01s4.48 0 7.47.22c.42.05 1.33.05 2.15.9.64.65.84 2.12.84 2.12s.22 1.74.22 3.47Zm-6.33.82L8.71 4.75v5.54l6.33-2.76Z" fill="#1C1C1C"/></svg>